<?xml version="1.0" encoding="utf-8"?>
<!-- Generator: Adobe Illustrator 19.0.0, SVG Export Plug-In . SVG Version: 6.00 Build 0)  -->
<svg version="1.1" id="Layer_1" xmlns="http://www.w3.org/2000/svg" xmlns:xlink="http://www.w3.org/1999/xlink" x="0px" y="0px"
	 viewBox="0 0 70 70" style="enable-background:new 0 0 70 70;" xml:space="preserve">
<style type="text/css">
	.st0{opacity:5.000000e-002;}
	.st1{fill:url(#SVGID_1_);}
	.st2{fill:url(#XMLID_2_);}
	.st3{fill:url(#XMLID_3_);}
	.st4{fill:url(#XMLID_4_);}
</style>
<path id="XMLID_438_" class="st0" d="M35,0C15.7,0,0,15.7,0,35s15.7,35,35,35s35-15.7,35-35S54.3,0,35,0L35,0z"/>
<g id="XMLID_288_">
	<linearGradient id="SVGID_1_" gradientUnits="userSpaceOnUse" x1="55.7424" y1="22.6838" x2="24.9924" y2="61.1838">
		<stop  offset="0" style="stop-color:#D3EA00"/>
		<stop  offset="1" style="stop-color:#74A120"/>
	</linearGradient>
	<path class="st1" d="M45.5,19.5c-8.8,0-16,7.2-16,16s7.2,16,16,16s16-7.2,16-16S54.4,19.5,45.5,19.5z M53.5,43.1
		c-0.1,0.6-0.4,1.1-0.8,1.4l-1.5,1c-0.3,0.2-0.7,0.3-1.1,0.3c-0.1,0-0.2,0-0.3,0c-2.6-0.4-6.1-3.3-8.8-7.3c-2.8-4-4.2-8.2-3.7-10.8
		c0.1-0.5,0.4-0.9,0.8-1.2l1.5-1c0.5-0.3,1-0.4,1.6-0.3c0.6,0.2,1.1,0.6,1.4,1.1l1.1,2.1c0.4,0.8,0.2,1.8-0.6,2.3l-0.8,0.6
		c-0.4,0.3-0.5,1-0.3,1.5c0.6,1.2,1.3,2.3,2.1,3.5c0.8,1.1,1.6,2.1,2.5,3.1c0.4,0.4,1,0.5,1.4,0.2l0.8-0.6c0.7-0.5,1.8-0.3,2.5,0.4
		l1.6,1.8C53.3,41.8,53.5,42.5,53.5,43.1z"/>
</g>
<g id="XMLID_273_">
	<linearGradient id="XMLID_2_" gradientUnits="userSpaceOnUse" x1="36.1434" y1="7.0301" x2="5.3934" y2="45.5301">
		<stop  offset="0" style="stop-color:#D3EA00"/>
		<stop  offset="1" style="stop-color:#74A120"/>
	</linearGradient>
	<path id="XMLID_278_" class="st2" d="M40,18.4c-0.2-1.9-1.7-3.4-3.6-3.4H18.7c-2,0-3.7,1.6-3.7,3.7V19h23.3
		C38.8,18.8,39.4,18.5,40,18.4z"/>
	<linearGradient id="XMLID_3_" gradientUnits="userSpaceOnUse" x1="42.0129" y1="11.7181" x2="11.2629" y2="50.2181">
		<stop  offset="0" style="stop-color:#D3EA00"/>
		<stop  offset="1" style="stop-color:#74A120"/>
	</linearGradient>
	<path id="XMLID_277_" class="st3" d="M27.5,35.5c0-5.9,2.9-11.2,7.3-14.5H15v27h17.6C29.5,44.8,27.5,40.3,27.5,35.5z"/>
	<linearGradient id="XMLID_4_" gradientUnits="userSpaceOnUse" x1="52.6974" y1="20.2518" x2="21.9474" y2="58.7518">
		<stop  offset="0" style="stop-color:#D3EA00"/>
		<stop  offset="1" style="stop-color:#74A120"/>
	</linearGradient>
	<path id="XMLID_274_" class="st4" d="M34.9,50H15v2.3c0,2,1.6,3.7,3.7,3.7h17.7c1.9,0,3.5-1.5,3.6-3.4C38.2,52,36.5,51.1,34.9,50z
		 M29,54h-2v-2h2V54z"/>
</g>
</svg>
