<?xml version="1.0" encoding="utf-8"?>
<!-- Generator: Adobe Illustrator 19.0.0, SVG Export Plug-In . SVG Version: 6.00 Build 0)  -->
<svg version="1.1" id="Layer_1" xmlns="http://www.w3.org/2000/svg" xmlns:xlink="http://www.w3.org/1999/xlink" x="0px" y="0px"
	 viewBox="0 0 70 70" style="enable-background:new 0 0 70 70;" xml:space="preserve">
<style type="text/css">
	.st0{opacity:5.000000e-002;}
	.st1{fill:url(#XMLID_2_);}
	.st2{fill:url(#XMLID_3_);}
	.st3{fill:url(#XMLID_4_);}
</style>
<path id="XMLID_307_" class="st0" d="M35,0C15.7,0,0,15.7,0,35s15.7,35,35,35s35-15.7,35-35S54.3,0,35,0L35,0z"/>
<g id="XMLID_57_">
	<linearGradient id="XMLID_2_" gradientUnits="userSpaceOnUse" x1="58.5387" y1="27.2792" x2="30.7887" y2="59.7792">
		<stop  offset="0" style="stop-color:#D3EA00"/>
		<stop  offset="1" style="stop-color:#74A120"/>
	</linearGradient>
	<path id="XMLID_68_" class="st1" d="M37.8,36l14.3,14.3c3.4-3.8,5.6-8.8,5.8-14.3H37.8z"/>
	<linearGradient id="XMLID_3_" gradientUnits="userSpaceOnUse" x1="49.751" y1="19.7759" x2="22.001" y2="52.2759">
		<stop  offset="0" style="stop-color:#D3EA00"/>
		<stop  offset="1" style="stop-color:#74A120"/>
	</linearGradient>
	<path id="XMLID_69_" class="st2" d="M36,34h22c-0.5-11.9-10.1-21.5-22-22V34z"/>
	<linearGradient id="XMLID_4_" gradientUnits="userSpaceOnUse" x1="48.6828" y1="18.8638" x2="20.9328" y2="51.3638">
		<stop  offset="0" style="stop-color:#D3EA00"/>
		<stop  offset="1" style="stop-color:#74A120"/>
	</linearGradient>
	<path id="XMLID_70_" class="st3" d="M35,36c-1.1-0.9-1-1.5-1-2V12c-12.2,0.5-22,10.6-22,23c0,12.7,10.3,23,23,23
		c6.1,0,11.6-2.4,15.7-6.2L35,36z"/>
</g>
</svg>
