<?xml version="1.0" encoding="utf-8"?>
<!-- Generator: Adobe Illustrator 19.0.0, SVG Export Plug-In . SVG Version: 6.00 Build 0)  -->
<svg version="1.1" id="Layer_1" xmlns="http://www.w3.org/2000/svg" xmlns:xlink="http://www.w3.org/1999/xlink" x="0px" y="0px"
	 viewBox="0 0 70 70" style="enable-background:new 0 0 70 70;" xml:space="preserve">
<style type="text/css">
	.st0{opacity:5.000000e-002;}
	.st1{fill:url(#XMLID_2_);}
	.st2{fill:url(#XMLID_3_);}
	.st3{fill:url(#XMLID_4_);}
	.st4{fill:url(#XMLID_5_);}
</style>
<path id="XMLID_262_" class="st0" d="M35,0C15.7,0,0,15.7,0,35s15.7,35,35,35s35-15.7,35-35S54.3,0,35,0L35,0z"/>
<g id="XMLID_255_">
	<linearGradient id="XMLID_2_" gradientUnits="userSpaceOnUse" x1="29.9338" y1="60.5738" x2="55.6838" y2="25.4488">
		<stop  offset="0" style="stop-color:#575EFF"/>
		<stop  offset="1" style="stop-color:#83E0FF"/>
	</linearGradient>
	<path id="XMLID_257_" class="st1" d="M52,46.1c0,2.2-1.8,3.9-3.9,3.9H18v0.8c0,1.7,1.4,3.2,3.2,3.2h31.7c1.7,0,3.2-1.4,3.2-3.2V31
		h-4V46.1z"/>
	<linearGradient id="XMLID_3_" gradientUnits="userSpaceOnUse" x1="29.1014" y1="59.9636" x2="54.8514" y2="24.8386">
		<stop  offset="0" style="stop-color:#575EFF"/>
		<stop  offset="1" style="stop-color:#83E0FF"/>
	</linearGradient>
	<path id="XMLID_256_" class="st2" d="M52.8,23H52v6h4v-2.8C56,24.4,54.6,23,52.8,23z"/>
</g>
<g id="XMLID_241_">
	<linearGradient id="XMLID_4_" gradientUnits="userSpaceOnUse" x1="18.5423" y1="52.2228" x2="44.2923" y2="17.0978">
		<stop  offset="0" style="stop-color:#575EFF"/>
		<stop  offset="1" style="stop-color:#83E0FF"/>
	</linearGradient>
	<path id="XMLID_247_" class="st3" d="M12,44.2c0,2.1,1.7,3.8,3.8,3.8h30.4c2.1,0,3.8-1.7,3.8-3.8V25H12V44.2z"/>
	<linearGradient id="XMLID_5_" gradientUnits="userSpaceOnUse" x1="11.8862" y1="47.3432" x2="37.6362" y2="12.2182">
		<stop  offset="0" style="stop-color:#575EFF"/>
		<stop  offset="1" style="stop-color:#83E0FF"/>
	</linearGradient>
	<path id="XMLID_242_" class="st4" d="M46.2,17H15.8c-2.1,0-3.8,1.7-3.8,3.8V23h38v-2.2C50,18.7,48.3,17,46.2,17z M36,21h-2v-2h2V21
		z M41,21h-2v-2h2V21z M46,21h-2v-2h2V21z"/>
</g>
</svg>
