<?xml version="1.0" encoding="utf-8"?>
<!-- Generator: Adobe Illustrator 19.0.0, SVG Export Plug-In . SVG Version: 6.00 Build 0)  -->
<svg version="1.1" id="Layer_1" xmlns="http://www.w3.org/2000/svg" xmlns:xlink="http://www.w3.org/1999/xlink" x="0px" y="0px"
	 viewBox="0 0 70 70" style="enable-background:new 0 0 70 70;" xml:space="preserve">
<style type="text/css">
	.st0{opacity:5.000000e-002;}
	.st1{fill:url(#XMLID_2_);}
</style>
<path id="XMLID_264_" class="st0" d="M35,0C15.7,0,0,15.7,0,35s15.7,35,35,35s35-15.7,35-35S54.3,0,35,0L35,0z"/>
<linearGradient id="XMLID_2_" gradientUnits="userSpaceOnUse" x1="20.3039" y1="55.2413" x2="47.4706" y2="23.908">
	<stop  offset="0" style="stop-color:#FF4B7D"/>
	<stop  offset="1" style="stop-color:#FF7A7D"/>
</linearGradient>
<path id="XMLID_233_" class="st1" d="M60,33c0-9.4-7.6-17-17-17H26c-9.4,0-17,7.6-17,17s7.6,17,17,17h16l12,8l-4-9.5
	C55.9,45.8,60,39.9,60,33z M22,41c-1.1,0-2-0.9-2-2c0-1.1,0.9-2,2-2s2,0.9,2,2C24,40.1,23.1,41,22,41z M22,35c-1.1,0-2-0.9-2-2
	c0-1.1,0.9-2,2-2s2,0.9,2,2C24,34.1,23.1,35,22,35z M22,29c-1.1,0-2-0.9-2-2c0-1.1,0.9-2,2-2s2,0.9,2,2C24,28.1,23.1,29,22,29z
	 M47,40H28c-0.5,0-1-0.5-1-1s0.5-1,1-1h19c0.5,0,1,0.5,1,1S47.5,40,47,40z M47,34H28c-0.5,0-1-0.5-1-1s0.5-1,1-1h19c0.5,0,1,0.5,1,1
	S47.5,34,47,34z M47,28H28c-0.5,0-1-0.5-1-1s0.5-1,1-1h19c0.5,0,1,0.5,1,1S47.5,28,47,28z"/>
</svg>
