<?xml version="1.0" encoding="utf-8"?>
<!-- Generator: Adobe Illustrator 19.0.0, SVG Export Plug-In . SVG Version: 6.00 Build 0)  -->
<svg version="1.1" id="Layer_1" xmlns="http://www.w3.org/2000/svg" xmlns:xlink="http://www.w3.org/1999/xlink" x="0px" y="0px"
	 viewBox="0 0 70 70" style="enable-background:new 0 0 70 70;" xml:space="preserve">
<style type="text/css">
	.st0{opacity:5.000000e-002;}
	.st1{fill:url(#SVGID_1_);}
	.st2{fill:url(#SVGID_2_);}
</style>
<path id="XMLID_299_" class="st0" d="M35,0C15.7,0,0,15.7,0,35s15.7,35,35,35s35-15.7,35-35S54.3,0,35,0L35,0z"/>
<g id="XMLID_266_">
	<g id="XMLID_270_">
		<linearGradient id="SVGID_1_" gradientUnits="userSpaceOnUse" x1="20.0673" y1="52.879" x2="34.0673" y2="20.379">
			<stop  offset="0" style="stop-color:#FF837D"/>
			<stop  offset="1" style="stop-color:#FFB27D"/>
		</linearGradient>
		<path class="st1" d="M40.4,50.2l-3.6-2.8c-1.2-0.9-3-0.9-4.1,0.2l-1.5,1.5c-1,1-2.4,1.1-3.5,0.4c-1.9-1.4-3.8-3-5.7-4.8
			c-1.9-1.9-3.5-3.9-4.9-5.8c-0.8-1.1-0.8-2.7,0.2-3.7l1.5-1.5c1.1-1.1,1.3-2.7,0.4-3.9l-2.6-3.5c-1.3-1.7-3.7-1.8-5.2-0.4l-2.6,2.5
			c-0.6,0.6-0.9,1.4-1,2.2c-0.3,4.8,3.4,12,9.8,18.4C24,55.6,31.3,59.2,36,59c0.8,0,1.6-0.4,2.2-1l2.5-2.6
			C42.2,53.9,42,51.5,40.4,50.2z"/>
	</g>
	<g id="XMLID_267_">
		<linearGradient id="SVGID_2_" gradientUnits="userSpaceOnUse" x1="30.8568" y1="57.5269" x2="44.857" y2="25.0264">
			<stop  offset="0" style="stop-color:#FF837D"/>
			<stop  offset="1" style="stop-color:#FFB27D"/>
		</linearGradient>
		<path class="st2" d="M54.2,46.1c-2-3.8-13.5-5.9-13.9-7.7c-0.3-1.6-0.4-4.2,0-5.4c0.2-0.7,1.1-1.4,1.8-2.4
			c1.5-2.2,2.7-4.6,2.5-10.7c-0.1-5.3-4.2-9.2-9.4-9.2c-5.2,0-9.4,3.9-9.4,9.2c0,5.8,1.2,7.2,2.5,9.8c0.5,1.1,1.3,1.8,1.5,2.5
			c0.4,1.1,0.5,4.4,0.1,6c-0.2,1-3.9,2.6-7.3,4.2c0.3,0.3,0.5,0.6,0.8,0.8c1.7,1.7,3.5,3.2,5.4,4.6c0.1,0.1,0.2,0.1,0.4,0.1
			c0.2,0,0.4-0.1,0.6-0.3l1.5-1.5c0.9-0.9,2.2-1.4,3.5-1.4c1.1,0,2.3,0.4,3.2,1.1l3.6,2.8c1.3,1,2,2.4,2.2,4c0,0.1,0,0.4,0,0.4H55
			C55,53,55.2,48.1,54.2,46.1z"/>
	</g>
</g>
</svg>
