<?xml version="1.0" encoding="iso-8859-1"?>
<!-- Generator: Adobe Illustrator 19.0.0, SVG Export Plug-In . SVG Version: 6.00 Build 0)  -->
<svg xmlns="http://www.w3.org/2000/svg" xmlns:xlink="http://www.w3.org/1999/xlink" version="1.1" id="Layer_1" x="0px" y="0px" viewBox="0 0 512 512" style="enable-background:new 0 0 512 512;" xml:space="preserve" width="512px" height="512px">
<g>
	<g>
		<path d="M382.713,282.882h-16.04h-64.78h-16.124h-16.134c2.006,8.067,3.036,16.397,3.036,24.864v39.821h123.12v-39.286    c0-8.613,1.061-17.143,3.12-25.399H382.713z" fill="#f5c131"/>
	</g>
</g>
<g>
	<g>
		<path d="M429.037,38.879C403.091,13.302,368.7-0.501,332.282,0.014c-35.063,0.494-68.172,14.496-93.204,39.401    c-25.042,24.916-39.202,57.952-39.864,93.004c-0.714,37.731,13.76,73.004,40.756,99.317c6.187,6.029,11.555,12.616,16.05,19.632    h18.193h17.668h26.586v-83.372h-14.863v-31.513h61.25v31.513h-14.874v83.372h26.67h17.49h18.246    c4.401-6.943,9.632-13.382,15.609-19.149c26.618-25.693,41.271-60.2,41.271-97.175C469.268,98.607,454.982,64.457,429.037,38.879z    " fill="#f5c131"/>
	</g>
</g>
<g>
	<g>
		<path d="M494.478,394.206c-3.74-11.996-11.933-21.807-23.057-27.637c-11.135-5.84-23.866-6.985-35.851-3.246L325.024,397.84    L201.725,334.3c-30.378-15.641-65.063-18.656-97.679-8.477l-88.687,31.271v132.259l102.343-31.534L274.992,512l188.603-58.876    c11.996-3.75,21.817-11.933,27.647-23.067C497.072,418.933,498.228,406.202,494.478,394.206z" fill="#f5c131"/>
	</g>
</g>
<g>
</g>
<g>
</g>
<g>
</g>
<g>
</g>
<g>
</g>
<g>
</g>
<g>
</g>
<g>
</g>
<g>
</g>
<g>
</g>
<g>
</g>
<g>
</g>
<g>
</g>
<g>
</g>
<g>
</g>
</svg>
