<?xml version="1.0" encoding="utf-8"?>
<!-- Generator: Adobe Illustrator 19.0.0, SVG Export Plug-In . SVG Version: 6.00 Build 0)  -->
<svg version="1.1" id="Layer_1" xmlns="http://www.w3.org/2000/svg" xmlns:xlink="http://www.w3.org/1999/xlink" x="0px" y="0px"
	 viewBox="-447 249 64 64" style="enable-background:new -447 249 64 64;" xml:space="preserve">
<style type="text/css">
	.st0{fill:url(#XMLID_2_);}
	.st1{fill:url(#XMLID_3_);}
	.st2{fill:url(#XMLID_4_);}
	.st3{fill:url(#XMLID_5_);}
</style>
<g id="XMLID_9_">
	
		<linearGradient id="XMLID_2_" gradientUnits="userSpaceOnUse" x1="-403.9391" y1="319.1649" x2="-452.9391" y2="284.1649" gradientTransform="matrix(1 0 0 -1 0 564)">
		<stop  offset="0" style="stop-color:#83E0FF"/>
		<stop  offset="1" style="stop-color:#575EFF"/>
	</linearGradient>
	<path id="XMLID_30_" class="st0" d="M-429.1,260.9c-0.1-0.4-0.6-1.1-0.8-1.2c-0.3-0.1-1.4,0-2,0c-1.2,0.1-2.6,0.2-3.4-0.4
		c-1.8,0.5-3.4,1.2-4.9,2c-3.7,4.8-6.1,10.6-6.7,17l0,0c1.2,0.3,3.9,0.6,5.9,0.8c0.1,0,0.5,0,0.8,0c0.5-0.1,1.1-0.1,1.5,0l0,0
		c-0.4-0.3-0.8-0.6-1-1c-0.4-0.8-0.5-2.4-0.1-3.2c0.3-0.7,1.1-1.4,1.8-2c0.3-0.2,0.6-0.5,0.8-0.7c0.2-0.2,0.4-0.5,0.6-0.8
		c0.4-0.5,0.8-1.1,1.1-1.4c0.5-0.5,1.4-1,2.2-1.6c0.5-0.3,0.9-0.6,1.2-0.8c0.3-0.2,0.7-0.4,1.1-0.7c0.7-0.5,2.1-1.3,2.3-1.9
		c0-0.2-0.1-0.8-0.2-1.1c-0.1-0.4-0.2-0.7-0.2-1.1c0-0.2,0-0.6,0-0.9C-429.1,261.6-429.1,261-429.1,260.9z"/>
	
		<linearGradient id="XMLID_3_" gradientUnits="userSpaceOnUse" x1="-389.6623" y1="299.1772" x2="-438.6623" y2="264.1773" gradientTransform="matrix(1 0 0 -1 0 564)">
		<stop  offset="0" style="stop-color:#83E0FF"/>
		<stop  offset="1" style="stop-color:#575EFF"/>
	</linearGradient>
	<path id="XMLID_23_" class="st1" d="M-394.6,270.6l3.3,0.3l0.2,0.2c0.8,0.6,1.7,1.2,1.9,1.2c0.5,0.1,2.3-0.1,3.7-0.3l1.2-0.2
		c-1.8-6-5.3-11.2-10-15.2l-1.7,0.8l-3,1.2l-4.9,0.5l-2.2-0.5c-1.9,0.6-4.8,1.8-5.6,2.4c-0.3,0.3-1,1.4-1.1,1.9c0,0.1,0,0.6,0,0.9
		c0,0.5,0.1,1,0,1.5c-0.1,0.4-0.4,1.1-0.7,1.4c-0.3,0.4-0.7,0.7-1.1,1.1c-0.3,0.3-0.7,0.6-0.8,0.8c-0.9,1.4-2.2,4.8-2.3,6.5
		c0,0.6,0.2,1.8,0.4,2.3c0.1,0.3,0.6,0.8,0.8,0.9c0.3,0.2,1.4,0.1,2.1,0.1c0.5,0,1,0,1.4,0c0.5,0.1,2.2,0.3,2.2,0.3l0.5,0.1l1.8,3.9
		l1.5,5.8c0.9,1.2,2,2.6,2.4,3c0.2,0.1,0.4,0.1,0.7,0.3c1.3,0.5,2.2,0.8,2.6,0.9c0.2-1.2,0.4-4.7,0.6-7.9v-0.2l2.1-4.9l-0.2-3.8
		l2.5-3L-394.6,270.6z"/>
	
		<linearGradient id="XMLID_4_" gradientUnits="userSpaceOnUse" x1="-391.6611" y1="301.9756" x2="-440.6611" y2="266.9756" gradientTransform="matrix(1 0 0 -1 0 564)">
		<stop  offset="0" style="stop-color:#83E0FF"/>
		<stop  offset="1" style="stop-color:#575EFF"/>
	</linearGradient>
	<path id="XMLID_14_" class="st2" d="M-426.5,290.5c0.3-0.8,0.6-1.5,0.7-2c0.8-2.5,1.1-4.6,1-5.2c-1.7-1.6-6.2-3.4-8.2-3.4
		c-0.3,0-1.2,0.3-1.4,0.5c-0.1,0.1-0.1,0.2-0.2,0.3c-0.3,0.5-0.8,1.1-1.5,1.2c-0.1,0-0.2,0-0.2,0c0,0.3-0.3,0.8-1.6,3.3
		c-0.6,1.1-1.4,2.7-1.7,3.3c0.1,0.3,0.4,1,1.7,1.2c0.7,0.2,3.4,1.5,4.3,2.5c0.6,0.7,1.1,2,1.6,3.3c0.2,0.5,0.4,1,0.5,1.4
		c0.1,0.2,0.2,0.5,0.4,0.9c0.2,0.6,0.7,1.7,1,1.9c0.3,0.3,1.4,0.7,1.7,0.6c0.2,0,0.8-0.4,0.9-0.6c0.2-0.4,0-1.6-0.2-2.5
		c-0.2-0.9-0.3-1.8-0.2-2.5C-427.7,293.7-427.1,292-426.5,290.5z"/>
	
		<linearGradient id="XMLID_5_" gradientUnits="userSpaceOnUse" x1="-390.5436" y1="300.411" x2="-439.5436" y2="265.411" gradientTransform="matrix(1 0 0 -1 0 564)">
		<stop  offset="0" style="stop-color:#83E0FF"/>
		<stop  offset="1" style="stop-color:#575EFF"/>
	</linearGradient>
	<path id="XMLID_13_" class="st3" d="M-385.2,273.9c-0.8,0.1-3.4,0.6-4.5,0.3c-0.7-0.2-1.8-0.9-2.4-1.4l-1.6-0.1l-1,1.4l-2,2.4
		l0.2,3.5l-2.2,5c-0.1,2-0.4,7.5-0.7,8.6c-0.1,0.4-0.4,0.7-0.8,0.8c-0.2,0.1-0.5,0.2-0.8,0.2c-0.9,0-2-0.4-3.6-1.1
		c-0.3-0.1-0.5-0.2-0.6-0.2c-0.3-0.1-0.8-0.1-3.5-3.8l-0.1-0.2l-1.6-6.1l-1.2-2.7c-0.5-0.1-1.2-0.2-1.5-0.2c-0.3,0-0.7,0-1.1,0
		c-1.1,0-2.2,0.1-2.9-0.3c-0.7-0.3-1.5-1.3-1.8-1.8c-0.4-0.8-0.7-2.5-0.6-3.3c0.2-2,1.6-5.7,2.6-7.4c0.3-0.4,0.7-0.8,1.2-1.2
		c0.3-0.2,0.6-0.6,0.8-0.7c0.1-0.2,0.3-0.6,0.3-0.7s0-0.6,0-0.9c0-0.6-0.1-1.1,0-1.6c0.2-0.8,1-2.3,1.7-2.9c1.4-1.2,6-2.8,6.5-2.9
		l0.3-0.1l2.4,0.6l4.5-0.4l2.6-1.1l0.6-0.4c-5.3-3.9-11.9-6.2-19-6.2c-8.4,0-16.1,3.3-21.8,8.6c0.5-0.2,1.1-0.3,1.7-0.5
		c0.4-0.1,0.8,0,1,0.3c0.1,0.1,0.1,0.2,0.2,0.3c0.4,0.1,1.3,0,1.8,0c1.2-0.1,2.4-0.2,3.2,0.3c0.7,0.5,1.5,1.7,1.7,2.4
		c0.2,0.5,0.1,1.1,0.1,1.7c0,0.2,0,0.5,0,0.7c0,0.1,0.1,0.4,0.2,0.7c0.2,0.8,0.4,1.6,0.1,2.3c-0.4,1.1-1.9,2-3.1,2.8
		c-0.4,0.2-0.7,0.4-0.9,0.6c-0.3,0.2-0.8,0.5-1.3,0.9c-0.7,0.5-1.5,1-1.9,1.3c-0.2,0.2-0.6,0.7-0.9,1.1c-0.3,0.4-0.5,0.7-0.8,1
		c-0.3,0.3-0.6,0.6-1,0.9c-0.4,0.3-1.1,0.9-1.2,1.2c-0.1,0.3-0.1,1.3,0.1,1.6c0,0,0.2,0.2,0.4,0.3c0.3,0.2,0.6,0.4,0.8,0.7
		c0.2,0.3,0.4,0.7,0.6,1.2c0,0,0,0.1,0.1,0.1c0.1-0.2,0.2-0.3,0.4-0.4c0.6-0.5,1.9-1,2.6-1c2.8-0.1,8,2.2,9.8,4
		c0.3,0.3,1.2,1.2-0.6,7.1c-0.2,0.6-0.5,1.3-0.8,2.1c-0.5,1.3-1.1,3-1.3,3.9c-0.1,0.4,0.1,1.2,0.2,1.9c0.2,1.4,0.5,2.8,0,3.7
		c-0.4,0.8-1.6,1.6-2.4,1.7c-0.1,0-0.2,0-0.3,0c-1,0-2.4-0.6-3-1.1c-0.7-0.6-1.1-1.7-1.5-2.7c-0.1-0.3-0.2-0.6-0.3-0.8
		c-0.2-0.4-0.4-1-0.6-1.5c-0.3-0.9-0.8-2.2-1.2-2.7c-0.5-0.6-2.7-1.8-3.2-1.9c-2.5-0.5-3.3-2.3-3.3-3.2c0-0.4,0.1-0.7,1.9-4.2
		c0.5-0.9,1.1-2,1.3-2.5c-0.1-0.3-0.4-0.8-0.5-0.9c-0.3-0.1-1,0-1.3,0c-0.4,0-0.8,0.1-1.1,0.1c-1-0.1-4-0.3-5.8-0.8
		c0,0.2,0,0.5,0,0.7c0,17.7,14.3,32,32,32c17.7,0,32-14.3,32-32c0-2.5-0.3-4.9-0.8-7.3L-385.2,273.9z"/>
</g>
</svg>
