<?xml version="1.0" encoding="utf-8"?>
<!-- Generator: Adobe Illustrator 19.0.0, SVG Export Plug-In . SVG Version: 6.00 Build 0)  -->
<svg version="1.1" id="Layer_1" xmlns="http://www.w3.org/2000/svg" xmlns:xlink="http://www.w3.org/1999/xlink" x="0px" y="0px"
	 viewBox="-444 246 70 70" style="enable-background:new -444 246 70 70;" xml:space="preserve">
<style type="text/css">
	.st0{opacity:5.000000e-002;}
	.st1{fill:url(#SVGID_1_);}
	.st2{fill:url(#SVGID_2_);}
	.st3{fill:url(#XMLID_3_);}
</style>
<path id="XMLID_105_" class="st0" d="M-409,246c-19.3,0-35,15.7-35,35s15.7,35,35,35s35-15.7,35-35S-389.7,246-409,246L-409,246z"/>
<g id="XMLID_23_">
	<g id="XMLID_65_">
		<linearGradient id="SVGID_1_" gradientUnits="userSpaceOnUse" x1="-394.467" y1="268.9819" x2="-426.5781" y2="296.093">
			<stop  offset="0" style="stop-color:#6DFFCC"/>
			<stop  offset="0.1665" style="stop-color:#68F1CE"/>
			<stop  offset="0.4817" style="stop-color:#5DCCD4"/>
			<stop  offset="0.9091" style="stop-color:#4991DE"/>
			<stop  offset="1" style="stop-color:#4583E0"/>
		</linearGradient>
		<path class="st1" d="M-408.5,279h-2.5v5h2.5c1.4,0,2.5-1.1,2.5-2.5S-407.1,279-408.5,279z"/>
	</g>
	<g id="XMLID_110_">
		<linearGradient id="SVGID_2_" gradientUnits="userSpaceOnUse" x1="-394.5307" y1="268.9065" x2="-426.6418" y2="296.0176">
			<stop  offset="0" style="stop-color:#6DFFCC"/>
			<stop  offset="0.1665" style="stop-color:#68F1CE"/>
			<stop  offset="0.4817" style="stop-color:#5DCCD4"/>
			<stop  offset="0.9091" style="stop-color:#4991DE"/>
			<stop  offset="1" style="stop-color:#4583E0"/>
		</linearGradient>
		<path class="st2" d="M-397.3,271h-31.3c-1.8,0-3.3,1.5-3.3,3.3v20.3c0,1.8,1.5,3.3,3.3,3.3h31.3c1.8,0,3.3-1.5,3.3-3.3v-20.3
			C-394,272.5-395.5,271-397.3,271z M-417,290.4c0,0.4-0.3,0.6-0.6,0.6h-0.7c-0.4,0-0.6-0.3-0.6-0.6v-12.7c0-0.4,0.3-0.6,0.6-0.6
			h0.7c0.4,0,0.6,0.3,0.6,0.6V290.4z M-408.5,286h-2.5v4.4c0,0.4-0.3,0.6-0.6,0.6h-0.7c-0.4,0-0.6-0.3-0.6-0.6V286v-8.4V277h0.6h0.7
			h3.1c2.5,0,4.5,2,4.5,4.5S-406,286-408.5,286z"/>
	</g>
</g>
<linearGradient id="XMLID_3_" gradientUnits="userSpaceOnUse" x1="-386.7057" y1="263.5796" x2="-416.8819" y2="284.8916">
	<stop  offset="0" style="stop-color:#6DFFCC"/>
	<stop  offset="0.1665" style="stop-color:#68F1CE"/>
	<stop  offset="0.4817" style="stop-color:#5DCCD4"/>
	<stop  offset="0.9091" style="stop-color:#4991DE"/>
	<stop  offset="1" style="stop-color:#4583E0"/>
</linearGradient>
<path id="XMLID_93_" class="st3" d="M-389.3,263h-31.3c-1.8,0-3.3,1.5-3.3,3.3v2.7h26.7c2.9,0,5.3,2.4,5.3,5.3V290h2.7
	c1.8,0,3.3-1.5,3.3-3.3v-20.3C-386,264.5-387.5,263-389.3,263z"/>
</svg>
