<?xml version="1.0" encoding="utf-8"?>
<!-- Generator: Adobe Illustrator 19.0.0, SVG Export Plug-In . SVG Version: 6.00 Build 0)  -->
<svg version="1.1" id="Layer_1" xmlns="http://www.w3.org/2000/svg" xmlns:xlink="http://www.w3.org/1999/xlink" x="0px" y="0px"
	 viewBox="0 0 70 70" style="enable-background:new 0 0 70 70;" xml:space="preserve">
<style type="text/css">
	.st0{opacity:5.000000e-002;}
	.st1{fill:url(#XMLID_2_);}
	.st2{fill:url(#XMLID_3_);}
	.st3{fill:url(#XMLID_4_);}
	.st4{fill:url(#XMLID_5_);}
</style>
<path id="XMLID_419_" class="st0" d="M35,0C15.7,0,0,15.7,0,35s15.7,35,35,35s35-15.7,35-35S54.3,0,35,0L35,0z"/>
<g id="XMLID_411_">
	<linearGradient id="XMLID_2_" gradientUnits="userSpaceOnUse" x1="18.3669" y1="43.1247" x2="50.367" y2="13.1247">
		<stop  offset="0" style="stop-color:#575EFF"/>
		<stop  offset="1" style="stop-color:#83E0FF"/>
	</linearGradient>
	<circle id="XMLID_418_" class="st1" cx="26.5" cy="35.5" r="2.5"/>
	<linearGradient id="XMLID_3_" gradientUnits="userSpaceOnUse" x1="26.3191" y1="51.6071" x2="58.3191" y2="21.6071">
		<stop  offset="0" style="stop-color:#575EFF"/>
		<stop  offset="1" style="stop-color:#83E0FF"/>
	</linearGradient>
	<circle id="XMLID_417_" class="st2" cx="43.5" cy="35.5" r="2.5"/>
	<g id="XMLID_412_">
		<linearGradient id="XMLID_4_" gradientUnits="userSpaceOnUse" x1="22.0936" y1="47.0998" x2="54.0936" y2="17.0998">
			<stop  offset="0" style="stop-color:#575EFF"/>
			<stop  offset="1" style="stop-color:#83E0FF"/>
		</linearGradient>
		<path id="XMLID_414_" class="st3" d="M51.8,21H18.3c-1.8,0-3.3,1.5-3.3,3.3v21.5c0,1.8,1.5,3.3,3.3,3.3h5.1l1.8-2.6
			c0.6-0.9,1.5-1.4,2.6-1.4h14.6c1.1,0,2.1,0.5,2.6,1.4l1.7,2.6h5.1c1.8,0,3.3-1.5,3.3-3.3V24.3C55,22.5,53.5,21,51.8,21z M43.5,40
			C41,40,39,38,39,35.5c0-0.9,0.3-1.8,0.8-2.5h-9.5c0.5,0.7,0.8,1.6,0.8,2.5c0,2.5-2,4.5-4.5,4.5S22,38,22,35.5s2-4.5,4.5-4.5
			c0.2,0,16.8,0,17,0c2.5,0,4.5,2,4.5,4.5S46,40,43.5,40z"/>
		<linearGradient id="XMLID_5_" gradientUnits="userSpaceOnUse" x1="28.9328" y1="54.395" x2="60.9328" y2="24.395">
			<stop  offset="0" style="stop-color:#575EFF"/>
			<stop  offset="1" style="stop-color:#83E0FF"/>
		</linearGradient>
		<path id="XMLID_413_" class="st4" d="M42.3,47H27.7c-0.4,0-0.7,0.2-0.9,0.5l-1,1.5h18.5l-1-1.5C43.1,47.2,42.7,47,42.3,47z"/>
	</g>
</g>
</svg>
