<?xml version="1.0" encoding="utf-8"?>
<!-- Generator: Adobe Illustrator 21.0.2, SVG Export Plug-In . SVG Version: 6.00 Build 0)  -->
<svg version="1.1" xmlns="http://www.w3.org/2000/svg" xmlns:xlink="http://www.w3.org/1999/xlink" x="0px" y="0px"
	 viewBox="120 120 480 165" enable-background="new 120 120 480 165" xml:space="preserve">
<g>
	<path fill="#1D1D1B" d="M567.134,192.729c-0.855,0-1.587,0.752-1.587,1.597v15.131h-19.075v-15.131
		c0-0.845-0.752-1.597-1.601-1.597h-5.223c-0.841,0-1.498,0.752-1.498,1.597v38.871c0,0.864,0.657,1.608,1.498,1.608h5.223
		c0.849,0,1.601-0.744,1.601-1.608v-16.157h19.075v16.157c0,0.864,0.731,1.608,1.587,1.608h5.24c0.721,0,1.467-0.744,1.467-1.608
		v-38.871c0-0.845-0.746-1.597-1.467-1.597H567.134z M526.662,175.372c0.958,0,1.696,0.746,1.696,1.58v4.813
		c0,0.852-0.738,1.601-1.696,1.601h-32.485c-0.855,0-1.587-0.749-1.587-1.601v-4.813c0-0.834,0.732-1.58,1.587-1.58H526.662z
		 M316.145,175.372c-0.83,0-1.587,0.746-1.587,1.58v40.087c0,10.744,3.403,17.879,16.831,17.879h1.598
		c19.163,0,22.047-12.671,22.047-19.173c0-5.76-2.131-19.402-21.191-19.402h-10.661v-12.977h24.604c0.859,0,1.608-0.749,1.608-1.601
		v-4.813c0-0.834-0.749-1.58-1.608-1.58H316.145z M334.148,204.236c7.789,0,12.149,4.248,12.149,11.509
		c0,7.243-4.36,11.194-12.149,11.194h-2.76c-5.848,0-8.208-2.453-8.208-9.068v-13.635H334.148z M454.999,193.481
		c-0.537,0.219-0.965,0.845-0.965,1.378v4.808c0,0.412,0.318,0.961,0.625,1.161c0.449,0.219,0.869,0.316,1.286,0.219
		c2.873-0.968,6.188-1.926,11.605-1.926c6.707,0,7.897,2.023,7.897,6.806v0.873l-9.268,0.643
		c-14.927,1.041-15.665,10.748-15.665,13.732c0,8.836,4.69,14.261,15.88,14.261c3.513,0,7.453-1.052,10.853-3.195l0.753,1.606
		c0.204,0.537,0.741,0.958,1.371,0.958h3.109c0.749,0,1.484-0.641,1.484-1.482v-27.281c0-10.002-5.325-14.804-16.414-14.804
		C462.868,191.237,458.296,192.101,454.999,193.481 M459.353,221.175c0-2.984,0.544-6.083,6.703-6.604l9.268-0.859l0.124,11.171
		c-2.982,1.818-5.336,2.781-8.954,2.781C462.96,227.664,459.353,226.286,459.353,221.175 M390.587,233.847
		c0.201,0.537,0.728,0.958,1.357,0.958h3.749c0.742,0,1.478-0.641,1.478-1.482v-38.997c0-0.845-0.636-1.597-1.598-1.597h-5.109
		c-0.954,0-1.601,0.752-1.601,1.597v27.383c-2.764,2.983-7.765,5.521-11.503,5.521c-5.213,0-7.774-2.863-7.774-10.191v-22.713
		c0-0.845-0.757-1.597-1.604-1.597h-5.1c-0.858,0-1.611,0.752-1.611,1.597v25.364c0,9.265,5.015,15.746,14.711,15.746
		c5.969,0,11.188-3.195,13.74-5.425L390.587,233.847z M521.867,233.847c0.205,0.537,0.749,0.958,1.396,0.958h3.721
		c0.753,0,1.477-0.641,1.477-1.513v-38.966c0-0.845-0.626-1.597-1.58-1.597h-5.109c-0.972,0-1.601,0.752-1.601,1.597v27.383
		c-2.764,2.983-7.781,5.521-11.521,5.521c-5.201,0-7.767-2.863-7.767-10.191v-22.713c0-0.845-0.749-1.597-1.583-1.597h-5.124
		c-0.855,0-1.587,0.752-1.587,1.597v25.364c0,9.265,5.004,15.746,14.687,15.746c5.954,0,11.205-3.195,13.746-5.425L521.867,233.847z
		 M410.364,220.004c-0.54,5.631-2.011,7.031-6.813,7.563c-0.76,0.097-1.488,0.843-1.488,1.691v4.266c0,0.86,0.728,1.601,1.488,1.601
		c9.364,0,14.057-4.465,15.028-15.534l0.951-9.926c0.636-6.912,2.021-9.036,8.297-9.036h6.912v32.568
		c0,0.864,0.763,1.608,1.614,1.608h5.106c0.742,0,1.598-0.744,1.598-1.608v-38.871c0-0.845-0.855-1.597-1.598-1.597h-14.063
		c-11.605,0-14.997,6.712-15.966,16.197L410.364,220.004z"/>
	<path fill="#1D1D1B" d="M589.36,190.548c3.806,0,7.17,1.196,7.17,7.062c0,5.81-3.364,7.06-7.17,7.06
		c-3.802,0-7.173-1.251-7.173-7.06C582.188,191.745,585.559,190.548,589.36,190.548 M589.36,191.745
		c-3.421,0-5.866,0.811-5.866,5.866c0,5.051,2.445,5.862,5.866,5.862c3.424,0,5.866-0.811,5.866-5.862
		C595.227,192.555,592.784,191.745,589.36,191.745 M587.784,201.276v-2.904h2.067l1.516,2.931c0.064,0.12,0.22,0.214,0.357,0.214
		h0.922c0.135,0,0.191-0.09,0.128-0.209l-1.725-3.103c0.919-0.325,1.244-1.083,1.244-2.118c0-1.465-0.594-2.393-2.608-2.393h-2.901
		c-0.138,0-0.251,0.115-0.251,0.246v7.336c0,0.134,0.113,0.241,0.251,0.241h0.76C587.679,201.517,587.784,201.411,587.784,201.276
		 M587.784,194.893h2.067c1.085,0,1.247,0.544,1.247,1.194c0,0.487-0.162,1.035-1.247,1.035h-2.067V194.893z"/>
</g>
<g>
	<defs>
		<path id="SVGID_1_" d="M125.004,205.346c0,42.49,34.44,76.932,76.932,76.932c42.48,0,76.925-34.441,76.925-76.932
			c0-42.486-34.444-76.928-76.925-76.928C159.443,128.418,125.004,162.86,125.004,205.346"/>
	</defs>
	<clipPath id="SVGID_2_">
		<use xlink:href="#SVGID_1_"  overflow="visible"/>
	</clipPath>
	<linearGradient id="SVGID_3_" gradientUnits="userSpaceOnUse" x1="125" y1="205.4076" x2="278.8574" y2="205.4076">
		<stop  offset="0.1" style="stop-color:#F7A700"/>
		<stop  offset="0.8864" style="stop-color:#FEDA00"/>
	</linearGradient>
	<path clip-path="url(#SVGID_2_)" fill="url(#SVGID_3_)" d="M278.857,254.797H125v-32.928h153.857V254.797z M278.857,156.018H125
		v32.928h153.857V156.018z"/>
</g>
<defs>
	<filter id="Adobe_OpacityMaskFilter" filterUnits="userSpaceOnUse" x="173.347" y="134.613" width="93.291" height="93.295">
		<feColorMatrix  type="matrix" values="1 0 0 0 0  0 1 0 0 0  0 0 1 0 0  0 0 0 1 0"/>
	</filter>
</defs>
<mask maskUnits="userSpaceOnUse" x="173.347" y="134.613" width="93.291" height="93.295" id="SVGID_4_">
	<g filter="url(#Adobe_OpacityMaskFilter)">
		<radialGradient id="SVGID_5_" cx="219.9922" cy="181.2607" r="46.6465" gradientUnits="userSpaceOnUse">
			<stop  offset="0.2" style="stop-color:#77787B"/>
			<stop  offset="0.3196" style="stop-color:#717275"/>
			<stop  offset="0.4761" style="stop-color:#626265"/>
			<stop  offset="0.6531" style="stop-color:#47484A"/>
			<stop  offset="0.8437" style="stop-color:#232324"/>
			<stop  offset="1" style="stop-color:#000000"/>
		</radialGradient>
		<path fill="url(#SVGID_5_)" d="M266.638,181.261c0-25.761-20.884-46.648-46.648-46.648c-25.761,0-46.643,20.886-46.643,46.648
			c0,25.763,20.882,46.647,46.643,46.647C245.754,227.908,266.638,207.024,266.638,181.261"/>
	</g>
</mask>
<path mask="url(#SVGID_4_)" fill="#FFFFFF" d="M266.638,181.261c0-25.761-20.884-46.648-46.648-46.648
	c-25.761,0-46.643,20.886-46.643,46.648c0,25.763,20.882,46.647,46.643,46.647C245.754,227.908,266.638,207.024,266.638,181.261"/>
<g>
	<defs>
		<path id="SVGID_6_" d="M125.004,205.346c0,42.49,34.44,76.932,76.932,76.932c42.48,0,76.925-34.441,76.925-76.932
			c0-42.486-34.444-76.928-76.925-76.928C159.443,128.418,125.004,162.86,125.004,205.346"/>
	</defs>
	<clipPath id="SVGID_7_">
		<use xlink:href="#SVGID_6_"  overflow="visible"/>
	</clipPath>
	<path clip-path="url(#SVGID_7_)" fill="#1D1D1B" d="M278.857,156.022H125v-27.593h153.857V156.022z M278.857,254.793H125.002
		v27.455h153.855V254.793z M278.857,188.943H125.002v32.926h153.855V188.943z"/>
</g>
<g>
	<defs>
		<path id="SVGID_8_" d="M278.857,156.022H125v-27.593h153.857V156.022z M278.857,188.943H125.002v32.926h153.855V188.943z"/>
	</defs>
	<clipPath id="SVGID_9_">
		<use xlink:href="#SVGID_8_"  overflow="visible"/>
	</clipPath>
	<defs>
		<filter id="Adobe_OpacityMaskFilter_1_" filterUnits="userSpaceOnUse" x="173.347" y="134.613" width="93.291" height="93.295">
			<feColorMatrix  type="matrix" values="1 0 0 0 0  0 1 0 0 0  0 0 1 0 0  0 0 0 1 0"/>
		</filter>
	</defs>
	<mask maskUnits="userSpaceOnUse" x="173.347" y="134.613" width="93.291" height="93.295" id="SVGID_10_">
		<g filter="url(#Adobe_OpacityMaskFilter_1_)">
			<radialGradient id="SVGID_11_" cx="219.9922" cy="181.2607" r="46.6465" gradientUnits="userSpaceOnUse">
				<stop  offset="0.2" style="stop-color:#636466"/>
				<stop  offset="0.3343" style="stop-color:#5D5E60"/>
				<stop  offset="0.5101" style="stop-color:#4D4E50"/>
				<stop  offset="0.7088" style="stop-color:#333435"/>
				<stop  offset="0.923" style="stop-color:#0F0F0F"/>
				<stop  offset="1" style="stop-color:#000000"/>
			</radialGradient>
			<path clip-path="url(#SVGID_9_)" fill="url(#SVGID_11_)" d="M266.638,181.261c0-25.761-20.884-46.648-46.648-46.648
				c-25.761,0-46.643,20.886-46.643,46.648c0,25.763,20.882,46.647,46.643,46.647C245.754,227.908,266.638,207.024,266.638,181.261"
				/>
		</g>
	</mask>
</g>
<g>
	<g>
		<path fill="#1D1D1B" d="M401.295,266.449h2.779c2.418,0,7.381,0.529,7.381,6.752c0,2.119-0.695,3.807-1.721,4.832
			c-0.859,0.859-2.648,1.92-6.023,1.92h-5.527c-0.43,0-0.529-0.166-0.529-0.529v-21.68c0-0.33,0.1-0.496,0.496-0.496h11.65
			c0.133,0,0.365,0,0.365,0.299c0,0.065,0,0.131-0.035,0.23l-0.563,1.986c-0.1,0.363-0.33,0.463-0.662,0.463h-7.611V266.449z
			 M403.48,277.041c1.191,0,2.283-0.066,3.273-1.061c0.863-0.859,0.994-1.82,0.994-2.713c0-0.795-0.033-1.953-0.994-2.879
			c-0.959-0.928-2.217-1.027-3.176-1.027h-2.283v7.68H403.48z"/>
		<path fill="#1D1D1B" d="M427.656,279.521c0,0.398-0.234,0.432-0.332,0.432h-2.549c-0.297,0-0.432-0.199-0.432-0.432v-7.348
			c0-0.363,0-1.156,0.135-3.375l-0.1-0.033c-0.697,1.49-1.225,2.416-1.855,3.541l-4.17,7.447c-0.098,0.166-0.164,0.199-0.43,0.199
			h-2.449c-0.363,0-0.432-0.199-0.432-0.299v-15.488c0-0.199,0.068-0.232,0.266-0.264l2.781-0.598c0.166,0,0.264,0.066,0.264,0.266
			v8.041c0,0.961-0.033,2.219-0.131,3.41h0.131c1.158-2.416,1.258-2.582,1.822-3.541l4.168-7.281c0.1-0.166,0.1-0.232,0.365-0.297
			l2.418-0.564c0.098-0.033,0.164-0.033,0.23-0.033c0.266,0,0.299,0.166,0.299,0.266V279.521z"/>
		<path fill="#1D1D1B" d="M431.063,265.723c-0.066-0.102-0.066-0.201-0.066-0.266c0-1.391,3.541-2.152,5.262-2.152
			c2.053,0,5.328,0.992,5.328,4.6c0,1.293-0.563,2.75-2.348,3.51c2.018,0.496,2.779,2.715,2.779,4.072
			c0,0.859-0.133,2.217-1.191,3.342c-1.424,1.488-3.674,1.621-4.734,1.621c-1.025,0-2.316-0.098-3.541-0.629
			c-0.727-0.332-1.752-0.959-1.752-1.357c0-0.066,0-0.131,0.031-0.197l0.662-1.654c0.066-0.135,0.133-0.166,0.23-0.166
			c0.135,0,0.266,0.066,0.299,0.098c1.291,0.729,2.184,1.326,3.641,1.326c1.555,0,2.914-0.895,2.914-2.584
			c0-1.752-1.49-2.35-3.078-2.35h-1.16c-0.363,0-0.463-0.098-0.463-0.463v-1.654c0-0.365,0.1-0.465,0.463-0.465h0.928
			c1.059,0,3.012-0.23,3.012-2.283c0-1.82-1.623-2.184-2.549-2.184c-1.422,0-2.217,0.496-2.945,1.059l-0.266,0.199
			c-0.131,0.1-0.232,0.133-0.332,0.133c-0.131,0-0.197-0.066-0.23-0.133L431.063,265.723z"/>
		<path fill="#1D1D1B" d="M454.748,264.266c0-0.266,0.199-0.332,0.299-0.363l2.514-0.564c0.102-0.033,0.166-0.033,0.233-0.033
			c0.232,0,0.266,0.133,0.266,0.297v15.92c0,0.299-0.133,0.432-0.432,0.432h-2.447c-0.398,0-0.432-0.1-0.432-0.432v-6.65h-5.594
			v6.65c0,0.398-0.1,0.432-0.43,0.432h-2.449c-0.299,0-0.43-0.133-0.43-0.432v-15.256c0-0.1,0-0.266,0.232-0.332l2.58-0.596
			c0.1-0.033,0.168-0.033,0.23-0.033c0.266,0,0.266,0.166,0.266,0.266v6.586h5.594V264.266z"/>
		<path fill="#1D1D1B" d="M474.883,271.746c0,0.627-0.033,0.992-0.529,0.992h-9.201c0.133,3.211,1.457,4.865,4.006,4.865
			c1.953,0,3.012-0.728,4.037-1.191c0.066-0.033,0.1-0.066,0.166-0.066c0.1,0,0.197,0.1,0.266,0.266l0.76,1.654
			c0.066,0.131,0.1,0.232,0.1,0.332c0,0.957-3.973,1.852-5.66,1.852c-4.5,0-7.115-3.145-7.115-8.506c0-5.23,2.713-8.639,6.883-8.639
			c4.072,0,6.289,2.912,6.289,8.209V271.746z M468.396,265.82c-1.986,0-2.978,1.391-3.211,4.369h6.156
			C471.275,267.244,470.348,265.82,468.396,265.82z"/>
		<path fill="#1D1D1B" d="M488.373,267.342c-0.063,0.1-0.164,0.135-0.23,0.135c-0.133,0-0.23-0.068-0.299-0.135
			c-1.289-1.025-2.051-1.322-3.043-1.322c-2.482,0-3.643,1.885-3.643,5.824c0,3.971,1.127,5.891,3.51,5.891
			c1.355,0,2.217-0.529,3.244-1.322c0.133-0.1,0.23-0.166,0.33-0.166s0.166,0.1,0.23,0.23l0.664,1.623
			c0.065,0.166,0.131,0.297,0.131,0.398c0,1.023-3.641,1.951-4.998,1.951c-4.236,0-6.685-3.012-6.685-8.207
			c0-5.529,2.748-8.938,7.184-8.938c1.588,0,4.766,0.961,4.766,2.053c0,0.066-0.033,0.133-0.066,0.199L488.373,267.342z"/>
	</g>
</g>
</svg>
