<?xml version="1.0" encoding="iso-8859-1"?>
<!-- Generator: Adobe Illustrator 18.1.1, SVG Export Plug-In . SVG Version: 6.00 Build 0)  -->
<svg version="1.1" xmlns="http://www.w3.org/2000/svg" xmlns:xlink="http://www.w3.org/1999/xlink" x="0px" y="0px"
	 viewBox="0 0 32 32" style="enable-background:new 0 0 32 32;" xml:space="preserve">
	<g>
		<path style="fill:#e3e3e0;" d="M16,0C10.477,0,6,4.477,6,10c0,7,10,22,10,22s10-15,10-22C26,4.477,21.521,0,16,0z M16.93,17.941
			C16.624,17.967,16.325,18,16,18s-0.625-0.033-0.93-0.059C11.09,17.48,8,14.104,8,10c0-4.419,3.581-8,8-8c4.415,0,8,3.581,8,8
			C24,14.104,20.906,17.48,16.93,17.941z"/>
		<circle style="fill:#e3e3e0;" cx="16" cy="10" r="4"/>
	</g>
</svg>
