<?xml version="1.0" encoding="iso-8859-1"?>
<!-- Generator: Adobe Illustrator 19.0.0, SVG Export Plug-In . SVG Version: 6.00 Build 0)  -->
<svg version="1.1" id="Capa_1" xmlns="http://www.w3.org/2000/svg" xmlns:xlink="http://www.w3.org/1999/xlink" x="0px" y="0px"
	 viewBox="0 0 505.596 505.596" style="enable-background:new 0 0 505.596 505.596;" xml:space="preserve">
<g>
	<path style="fill: #de504f" d="M445.632,170.063l52.45-67.602c3.497-4.371,4.371-9.907,3.205-15.152c-1.457-5.245-5.245-9.616-10.199-11.656L321.501,5.72
		c-7.285-2.914-15.735-0.874-20.397,5.536l-48.662,62.357L203.78,10.965c-4.954-6.411-13.404-8.45-20.689-5.245L13.504,78.567
		c-4.954,2.04-8.742,6.702-10.199,11.947s0,11.073,3.497,15.152l52.45,64.397L3.305,246.698c-3.205,4.371-4.079,10.199-2.622,15.444
		s5.536,9.324,10.781,11.364l50.993,18.94v123.257c0,7.285,4.371,13.695,11.073,16.318l173.376,68.185
		c2.04,0.874,4.371,1.166,6.411,1.166c2.04,0,4.371-0.291,6.411-1.166l173.376-68.185c6.702-2.622,11.073-9.033,11.073-16.318
		v-123.84l49.827-18.357c5.245-2.04,9.033-6.119,10.781-11.364c1.748-5.245,0.583-11.073-2.622-15.444L445.632,170.063z
		 M320.335,43.018l136.078,55.946l-40.212,51.576L278.084,97.216L320.335,43.018z M253.025,218.142l-126.171-45.165l121.8-49.536
		l129.376,49.827L253.025,218.142z M184.257,43.309l40.503,52.158l-136.37,55.364l-39.92-48.953L184.257,43.309z M84.311,194.831
		l140.449,50.41l-41.086,54.781L44.974,248.738L84.311,194.831z M408.917,403.756l-155.893,61.483L97.132,403.756v-98.489
		l86.834,32.053c2.04,0.583,4.079,1.166,6.119,1.166c5.245,0,10.49-2.622,13.987-6.993l48.37-64.688l48.37,64.688
		c3.497,4.371,8.742,6.993,13.987,6.993c2.04,0,4.079-0.291,6.119-1.166l87.999-32.344V403.756z M320.918,300.022l-40.794-54.198
		l140.449-50.702l39.046,53.615L320.918,300.022z"/>
</g>
<g>
</g>
<g>
</g>
<g>
</g>
<g>
</g>
<g>
</g>
<g>
</g>
<g>
</g>
<g>
</g>
<g>
</g>
<g>
</g>
<g>
</g>
<g>
</g>
<g>
</g>
<g>
</g>
<g>
</g>
</svg>
