<?xml version="1.0" encoding="utf-8"?>
<!-- Generator: Adobe Illustrator 19.0.0, SVG Export Plug-In . SVG Version: 6.00 Build 0)  -->
<svg version="1.1" id="Layer_1" xmlns="http://www.w3.org/2000/svg" xmlns:xlink="http://www.w3.org/1999/xlink" x="0px" y="0px"
	 viewBox="0 0 70 70" style="enable-background:new 0 0 70 70;" xml:space="preserve">
<style type="text/css">
	.st0{opacity:5.000000e-002;}
	.st1{fill:url(#SVGID_1_);}
	.st2{fill:url(#XMLID_2_);}
	.st3{fill:url(#XMLID_3_);}
</style>
<path id="XMLID_409_" class="st0" d="M35,0C15.7,0,0,15.7,0,35s15.7,35,35,35s35-15.7,35-35S54.3,0,35,0L35,0z"/>
<g id="XMLID_403_">
	<g id="XMLID_404_">
		
			<linearGradient id="SVGID_1_" gradientUnits="userSpaceOnUse" x1="123.6928" y1="16.485" x2="104.7819" y2="51.0415" gradientTransform="matrix(0.9979 -6.530371e-002 6.530371e-002 0.9979 -60.2623 14.3089)">
			<stop  offset="0" style="stop-color:#D3EA00"/>
			<stop  offset="1" style="stop-color:#74A120"/>
		</linearGradient>
		<path class="st1" d="M60.8,52.5l-5.7-6.2l-1.7,5.9L47.6,36l14,5.2l-4.1,2.6l4,4L60.8,52.5z"/>
	</g>
</g>
<g id="XMLID_401_">
	<linearGradient id="XMLID_2_" gradientUnits="userSpaceOnUse" x1="43.8211" y1="14.0534" x2="24.1068" y2="53.482">
		<stop  offset="0" style="stop-color:#D3EA00"/>
		<stop  offset="1" style="stop-color:#74A120"/>
	</linearGradient>
	<path id="XMLID_402_" class="st2" d="M34.3,11.5C21.4,11.5,11,21.9,11,34.8S21.4,58,34.3,58c6.2,0,11.9-2.5,16.1-6.4l-0.7-2.1
		c-3.9,4-9.3,6.6-15.4,6.6C22.5,56,13,46.5,13,34.8s9.6-21.3,21.3-21.3S55.5,23,55.5,34.8c0,0.5,0,0.9-0.1,1.4l2,0.7
		c0.1-0.7,0.1-1.4,0.1-2.1C57.5,21.9,47.1,11.5,34.3,11.5z"/>
</g>
<linearGradient id="XMLID_3_" gradientUnits="userSpaceOnUse" x1="44.1789" y1="14.2323" x2="24.4646" y2="53.6609">
	<stop  offset="0" style="stop-color:#D3EA00"/>
	<stop  offset="1" style="stop-color:#74A120"/>
</linearGradient>
<path id="XMLID_398_" class="st3" d="M47,33.3c0.2,0,0.4,0,0.7,0.1l4.9,1.7c0-0.1,0-0.1,0-0.2c0-10.2-8.3-18.5-18.5-18.5
	S15.5,24.8,15.5,35c0,10.2,8.3,18.5,18.5,18.5c5.9,0,11.2-2.8,14.5-7.1L45.1,36c-0.2-0.7-0.1-1.5,0.5-2.1C46,33.5,46.5,33.3,47,33.3
	z M44.5,43.8c-0.1,0.7-0.4,1.3-1,1.7l-1.8,1.3c-0.4,0.3-0.9,0.4-1.3,0.4c-0.1,0-0.3,0-0.4,0c-3.2-0.5-7.5-4.1-10.9-9
	c-3.4-4.9-5.2-10.2-4.6-13.4c0.1-0.6,0.5-1.1,1-1.5l1.8-1.3c0.6-0.4,1.3-0.5,1.9-0.3c0.8,0.2,1.4,0.7,1.8,1.4l1.3,2.6
	c0.5,1,0.2,2.2-0.7,2.9l-1.1,0.7c-0.5,0.4-0.7,1.2-0.3,1.9c0.7,1.4,1.6,2.9,2.5,4.3c1,1.4,2,2.6,3.1,3.8c0.5,0.5,1.2,0.6,1.8,0.2
	l1.1-0.7c0.9-0.6,2.2-0.4,3,0.5l2,2.3C44.3,42.2,44.6,43,44.5,43.8z"/>
</svg>
