<?xml version="1.0" encoding="utf-8"?>
<!-- Generator: Adobe Illustrator 19.0.0, SVG Export Plug-In . SVG Version: 6.00 Build 0)  -->
<svg version="1.1" id="Layer_1" xmlns="http://www.w3.org/2000/svg" xmlns:xlink="http://www.w3.org/1999/xlink" x="0px" y="0px"
	 viewBox="0 0 70 70" style="enable-background:new 0 0 70 70;" xml:space="preserve">
<style type="text/css">
	.st0{opacity:5.000000e-002;}
	.st1{fill:url(#XMLID_2_);}
	.st2{fill:url(#XMLID_3_);}
</style>
<path id="XMLID_217_" class="st0" d="M35,0C15.7,0,0,15.7,0,35s15.7,35,35,35s35-15.7,35-35S54.3,0,35,0L35,0z"/>
<g id="XMLID_54_">
	<linearGradient id="XMLID_2_" gradientUnits="userSpaceOnUse" x1="15.5863" y1="54.7584" x2="48.8363" y2="14.8834">
		<stop  offset="0" style="stop-color:#FF4B7D"/>
		<stop  offset="1" style="stop-color:#FF7A7D"/>
	</linearGradient>
	<path id="XMLID_59_" class="st1" d="M43,51.1c0-2.3,1.9-4.1,4.1-4.1H53V18.4c0-1.9-1.5-3.4-3.4-3.4H19.4c-1.9,0-3.4,1.5-3.4,3.4
		v35.3c0,1.9,1.5,3.4,3.4,3.4H43V51.1z M40,32.6c1.2,0.7,2,2,2,3.4s-0.8,2.7-2,3.4V32.6z M40,42.7c2.9-0.9,5-3.5,5-6.7
		s-2.1-5.8-5-6.7v-2.1c4,0.9,7,4.5,7,8.8s-3,7.9-7,8.8V42.7z M38,46.1c0,0.7-0.9,1.1-1.4,0.6L28,39h-3c-1.1,0-2-0.9-2-2v-3
		c0-1.1,0.9-2,2-2h3l8.6-7.7c0.6-0.5,1.4-0.1,1.4,0.6V46.1z"/>
	<linearGradient id="XMLID_3_" gradientUnits="userSpaceOnUse" x1="32.5014" y1="68.8632" x2="65.7514" y2="28.9882">
		<stop  offset="0" style="stop-color:#FF4B7D"/>
		<stop  offset="1" style="stop-color:#FF7A7D"/>
	</linearGradient>
	<path id="XMLID_58_" class="st2" d="M45,51.1V56l7-7h-4.9C46,49,45,50,45,51.1z"/>
</g>
</svg>
