<?xml version="1.0" encoding="utf-8"?>
<!-- Generator: Adobe Illustrator 19.0.0, SVG Export Plug-In . SVG Version: 6.00 Build 0)  -->
<svg version="1.1" id="Layer_1" xmlns="http://www.w3.org/2000/svg" xmlns:xlink="http://www.w3.org/1999/xlink" x="0px" y="0px"
	 viewBox="0 0 70 70" style="enable-background:new 0 0 70 70;" xml:space="preserve">
<style type="text/css">
	.st0{opacity:5.000000e-002;}
	.st1{fill:url(#XMLID_2_);}
	.st2{fill:url(#XMLID_3_);}
	.st3{fill:url(#XMLID_4_);}
	.st4{fill:url(#XMLID_5_);}
	.st5{fill:url(#XMLID_6_);}
	.st6{fill:url(#XMLID_7_);}
	.st7{fill:url(#XMLID_8_);}
	.st8{fill:url(#XMLID_9_);}
</style>
<path id="XMLID_396_" class="st0" d="M35,0C15.7,0,0,15.7,0,35s15.7,35,35,35s35-15.7,35-35S54.3,0,35,0L35,0z"/>
<g id="XMLID_385_">
	<linearGradient id="XMLID_2_" gradientUnits="userSpaceOnUse" x1="24.0097" y1="47.8718" x2="40.0097" y2="17.8718">
		<stop  offset="0" style="stop-color:#FF4B7D"/>
		<stop  offset="1" style="stop-color:#FF7A7D"/>
	</linearGradient>
	<path id="XMLID_395_" class="st1" d="M30.2,38C30.2,38,30.2,38,30.2,38c-0.6,0-1.1-0.1-1.6-0.3L25,41.3l2.1,2.1l3.6-3.6
		C30.4,39.3,30.2,38.7,30.2,38z"/>
	<linearGradient id="XMLID_3_" gradientUnits="userSpaceOnUse" x1="19.5762" y1="45.5073" x2="35.5762" y2="15.5073">
		<stop  offset="0" style="stop-color:#FF4B7D"/>
		<stop  offset="1" style="stop-color:#FF7A7D"/>
	</linearGradient>
	<path id="XMLID_394_" class="st2" d="M27.1,33.1l-0.8-0.8l-5.2,5.2l2.5,2.5l3.6-3.6C26.6,35.4,26.6,34.1,27.1,33.1z"/>
	<linearGradient id="XMLID_4_" gradientUnits="userSpaceOnUse" x1="26.0836" y1="47.5368" x2="40.6034" y2="20.3123">
		<stop  offset="0" style="stop-color:#FF4B7D"/>
		<stop  offset="1" style="stop-color:#FF7A7D"/>
	</linearGradient>
	<path id="XMLID_393_" class="st3" d="M30.4,37h0.9l0,1c0,0.6,0.2,1.3,0.7,1.7c0.4,0.4,1,0.7,1.6,0.7c0.3,0,0.6-0.1,0.9-0.2l0,0
		l1.2-1.2c0.3-0.8,0.2-1.8-0.5-2.4c-0.4-0.4-1-0.6-1.6-0.6h-0.9l0-1c0-0.6-0.2-1.3-0.7-1.7c-0.4-0.4-1-0.7-1.6-0.7s-1.2,0.2-1.6,0.6
		c-0.9,0.9-0.9,2.3,0,3.2C29.2,36.9,29.8,37,30.4,37z"/>
	<linearGradient id="XMLID_5_" gradientUnits="userSpaceOnUse" x1="26.9844" y1="49.4584" x2="42.9844" y2="19.4584">
		<stop  offset="0" style="stop-color:#FF4B7D"/>
		<stop  offset="1" style="stop-color:#FF7A7D"/>
	</linearGradient>
	<path id="XMLID_392_" class="st4" d="M33.7,35C33.7,35,33.7,35,33.7,35c0.6,0,1.1,0.1,1.6,0.3l3.6-3.6l-2.1-2.1l-3.5,3.5
		C33.5,33.7,33.7,34.3,33.7,35z"/>
	<linearGradient id="XMLID_6_" gradientUnits="userSpaceOnUse" x1="22.3172" y1="46.9692" x2="38.3172" y2="16.9692">
		<stop  offset="0" style="stop-color:#FF4B7D"/>
		<stop  offset="1" style="stop-color:#FF7A7D"/>
	</linearGradient>
	<path id="XMLID_391_" class="st5" d="M30.2,31.3c0.6,0,1.1,0.2,1.6,0.5l3.6-3.5L32.9,26c0,0,0,0,0,0l-5.2,5l0.8,0.7
		C29,31.4,29.6,31.3,30.2,31.3z"/>
	<linearGradient id="XMLID_7_" gradientUnits="userSpaceOnUse" x1="26.045" y1="48.9573" x2="42.045" y2="18.9573">
		<stop  offset="0" style="stop-color:#FF4B7D"/>
		<stop  offset="1" style="stop-color:#FF7A7D"/>
	</linearGradient>
	<path id="XMLID_388_" class="st6" d="M57.6,26.2L45.7,15H32.9L11.4,35.8c-1.3,1.3-1.3,3.1,0,4.5L27.3,56c0.7,0.7,1.5,0.9,2.4,0.9
		c0.9,0,1.7-0.4,2.4-1l25.5-25.5C58.9,29,58.9,27.6,57.6,26.2z M44.2,37L32.5,48.8c-0.4,0.4-0.9,0.6-1.4,0.6c-0.5,0-1-0.2-1.4-0.6
		l-9.9-9.9c-0.8-0.8-0.8-2,0-2.8l11.7-11.7c0.4-0.4,0.9-0.6,1.4-0.6s1,0.2,1.4,0.6l9.9,9.9C45,35,45,36.2,44.2,37z"/>
	<linearGradient id="XMLID_8_" gradientUnits="userSpaceOnUse" x1="28.7355" y1="50.3923" x2="44.7355" y2="20.3923">
		<stop  offset="0" style="stop-color:#FF4B7D"/>
		<stop  offset="1" style="stop-color:#FF7A7D"/>
	</linearGradient>
	<path id="XMLID_387_" class="st7" d="M33.7,41.7c-0.5,0-1.1-0.2-1.6-0.4l-3.6,3.6l2.5,2.5l5.2-5.2l-0.8-0.8
		C34.9,41.6,34.3,41.7,33.7,41.7z"/>
	<linearGradient id="XMLID_9_" gradientUnits="userSpaceOnUse" x1="31.4182" y1="51.8231" x2="47.4182" y2="21.8231">
		<stop  offset="0" style="stop-color:#FF4B7D"/>
		<stop  offset="1" style="stop-color:#FF7A7D"/>
	</linearGradient>
	<path id="XMLID_386_" class="st8" d="M36.8,36.7c0.6,1,0.6,2.3,0,3.3l0.8,0.8l5.2-5.2l-2.5-2.5L36.8,36.7z"/>
</g>
</svg>
