<?xml version="1.0" encoding="utf-8"?>
<!-- Generator: Adobe Illustrator 19.0.0, SVG Export Plug-In . SVG Version: 6.00 Build 0)  -->
<svg version="1.1" id="Layer_1" xmlns="http://www.w3.org/2000/svg" xmlns:xlink="http://www.w3.org/1999/xlink" x="0px" y="0px"
	 viewBox="0 0 70 70" style="enable-background:new 0 0 70 70;" xml:space="preserve">
<style type="text/css">
	.st0{opacity:5.000000e-002;}
	.st1{fill:url(#XMLID_2_);}
	.st2{fill:url(#XMLID_3_);}
	.st3{fill:url(#XMLID_4_);}
</style>
<path id="XMLID_383_" class="st0" d="M35,0C15.7,0,0,15.7,0,35s15.7,35,35,35s35-15.7,35-35S54.3,0,35,0L35,0z"/>
<g id="XMLID_368_">
	<linearGradient id="XMLID_2_" gradientUnits="userSpaceOnUse" x1="25.325" y1="52.2329" x2="47.325" y2="17.2329">
		<stop  offset="0" style="stop-color:#9565FF"/>
		<stop  offset="1" style="stop-color:#F7B3E6"/>
	</linearGradient>
	<rect id="XMLID_382_" x="34" y="25" class="st1" width="15" height="3"/>
	<linearGradient id="XMLID_3_" gradientUnits="userSpaceOnUse" x1="28.6097" y1="54.2976" x2="50.6097" y2="19.2976">
		<stop  offset="0" style="stop-color:#9565FF"/>
		<stop  offset="1" style="stop-color:#F7B3E6"/>
	</linearGradient>
	<path id="XMLID_370_" class="st2" d="M53.6,19H26c0,0,0,0,0,0v31c0,0.3,0,0.7-0.1,1h27.7c1.9,0,3.4-1.5,3.4-3.4V22.4
		C57,20.5,55.5,19,53.6,19z M32,34h5v3h-5V34z M39,39h5v3h-5V39z M44,37h-5v-3h5V37z M32,39h5v3h-5V39z M32,47v-3h5v3H32z M39,44h5
		v3h-5V44z M51,47h-5v-3h5V47z M51,42h-5v-3h5V42z M51,37h-5v-3h5V37z M51,28.2c0,1-0.8,1.8-1.8,1.8H33.8c-1,0-1.8-0.8-1.8-1.8v-3.3
		c0-1,0.8-1.8,1.8-1.8h15.3c1,0,1.8,0.8,1.8,1.8V28.2z"/>
	<linearGradient id="XMLID_4_" gradientUnits="userSpaceOnUse" x1="12.7295" y1="43.6804" x2="33.6898" y2="10.3344">
		<stop  offset="0" style="stop-color:#9565FF"/>
		<stop  offset="1" style="stop-color:#F7B3E6"/>
	</linearGradient>
	<path id="XMLID_369_" class="st3" d="M21,17h-5c-1.7,0-3,1.3-3,2.8v29.3c0,1.6,1.3,2.8,3,2.8h5c1.7,0,3-1.3,3-2.8V19.8
		C24,18.3,22.7,17,21,17z"/>
</g>
</svg>
