<?xml version="1.0" ?><svg enable-background="new 0 0 100 100"  version="1.1" viewBox="0 0 100 100" xml:space="preserve" xmlns="http://www.w3.org/2000/svg" xmlns:xlink="http://www.w3.org/1999/xlink"><path d="M50,5C25.147,5,5,25.147,5,50c0,24.853,20.147,45,45,45s45-20.147,45-45C95,25.147,74.853,5,50,5z   M64.715,77.336c-2.879,1.241-15.941,6.505-28.773,0.38c-3.734-1.782-6.559-4.104-8.613-6.206c-2.508-2.985-2.69-6.947-0.76-9.372  c1.182-1.485,3.16-2.399,5.193-2.28c2.578,0.151,4.885,1.94,5.826,4.56c0.465,0.639,4.276,5.701,10.766,5.826  c4.009,0.077,6.91-1.77,7.979-2.533c3.076-2.141,4.313-5.524,3.293-7.979c-0.618-1.488-1.923-2.293-2.66-2.66  c-0.499-0.128-1.255-0.322-2.176-0.552c-9.662-2.416-10.293-2.085-14.426-3.356c0,0-8.364-2.572-11.515-6.477  c-0.622-0.771-1.129-1.6-1.129-1.6c-0.154-0.252-0.283-0.481-0.391-0.679c-0.851-1.805-2.739-6.488-1.267-11.779  c2.002-7.195,9.396-12.557,18.459-13.045c2.91-0.306,7.255-0.418,12.318,0.76c4.295,0.999,7.672,2.593,10.006,3.926  c0.918,0.628,4.43,3.184,4.94,7.473c0.129,1.087,0.41,3.451-1.14,5.066c-1.937,2.019-5.282,1.242-5.699,1.14  c-1.415-0.347-2.448-1.112-2.736-1.33c-0.583-0.44-0.853-0.777-2.355-2.355c-0.649-0.681-1.183-1.233-1.531-1.59  c-0.19-0.12-0.472-0.289-0.824-0.471c-1.551-0.8-3.01-1.084-4.206-1.22c-2.362-0.269-11.89-1.353-13.812,2.516  c-0.066,0.134-0.11,0.246-0.12,0.271c-0.666,1.342-0.633,2.308-0.507,2.913c0.928,4.441,10.43,6.376,15.818,7.474  c1.811,0.369,2.735,0.468,4.7,1.012c2.301,0.637,5.787,1.602,8.431,3.404c3.67,2.503,6.548,7.187,6.895,12.048  C75.38,70.173,66.139,76.723,64.715,77.336z" fill="#f34945"/></svg>
