<?xml version="1.0" encoding="utf-8"?>
<!-- Generator: Adobe Illustrator 21.0.2, SVG Export Plug-In . SVG Version: 6.00 Build 0)  -->
<svg version="1.1" id="Слой_2" xmlns="http://www.w3.org/2000/svg" xmlns:xlink="http://www.w3.org/1999/xlink" x="0px" y="0px"
	 viewBox="0 0 137.571 134.832" enable-background="new 0 0 137.571 134.832" xml:space="preserve">
<g>
	
		<radialGradient id="XMLID_5_" cx="91.9567" cy="67.4405" r="68.4531" gradientTransform="matrix(0.9496 0 0 0.9496 -18.5323 3.3777)" gradientUnits="userSpaceOnUse">
		<stop  offset="0.3817" style="stop-color:#FFFFFF"/>
		<stop  offset="1" style="stop-color:#E9E8E8"/>
	</radialGradient>
	<circle id="XMLID_3819_" fill="url(#XMLID_5_)" cx="68.786" cy="67.416" r="65"/>
	<g id="XMLID_3802_">
		<g id="XMLID_3818_">
			<linearGradient id="SVGID_1_" gradientUnits="userSpaceOnUse" x1="104.0232" y1="104.2933" x2="39.5915" y2="39.8617">
				<stop  offset="0" style="stop-color:#6B83A1"/>
				<stop  offset="1" style="stop-color:#87C2DA"/>
			</linearGradient>
			<path fill="url(#SVGID_1_)" d="M109.661,101.056h-79.75c-1.726,0-3.125-1.399-3.125-3.125v-57.75
				c0-0.621,0.504-1.125,1.125-1.125h81.75c1.726,0,3.125,1.399,3.125,3.125v55.75C112.786,99.657,111.387,101.056,109.661,101.056z
				"/>
		</g>
		<g id="XMLID_3817_">
			<linearGradient id="SVGID_2_" gradientUnits="userSpaceOnUse" x1="91.0849" y1="105.9448" x2="50.8083" y2="32.8801">
				<stop  offset="0" style="stop-color:#CFDEF3"/>
				<stop  offset="0.7211" style="stop-color:#FFFFFF"/>
			</linearGradient>
			<path fill="url(#SVGID_2_)" d="M107.102,99.056H32.47c-2.035,0-3.684-1.649-3.684-3.684V38.74c0-2.035,1.649,0.316,3.684,0.316
				h74.632c2.035,0,3.684-2.351,3.684-0.316v56.632C110.786,97.406,109.136,99.056,107.102,99.056z"/>
		</g>
		<g id="XMLID_3816_">
			<linearGradient id="SVGID_3_" gradientUnits="userSpaceOnUse" x1="69.7857" y1="32.4818" x2="69.7857" y2="44.6917">
				<stop  offset="0" style="stop-color:#36A1DB"/>
				<stop  offset="1" style="stop-color:#4659A5"/>
			</linearGradient>
			<path fill="url(#SVGID_3_)" d="M112.786,45.056h-86v-10.1c0-2.154,1.746-3.9,3.9-3.9h78.2c2.154,0,3.9,1.746,3.9,3.9V45.056z"/>
		</g>
		<linearGradient id="XMLID_6_" gradientUnits="userSpaceOnUse" x1="69.7857" y1="20.8058" x2="69.7857" y2="44.5611">
			<stop  offset="0" style="stop-color:#FFFFFF"/>
			<stop  offset="0.7421" style="stop-color:#FFFFFF;stop-opacity:0"/>
		</linearGradient>
		<path id="XMLID_3815_" fill="url(#XMLID_6_)" d="M110.786,47.056h-82V35.389c0-1.289,1.045-2.333,2.333-2.333h76.333
			c1.841,0,3.333,1.492,3.333,3.333V47.056z"/>
		<rect id="XMLID_3814_" x="26.786" y="73.056" opacity="0.5" fill="#B5CC04" width="58" height="12"/>
		<rect id="XMLID_3813_" x="54.786" y="59.056" opacity="0.5" fill="#B5CC04" width="56" height="12"/>
		<linearGradient id="XMLID_7_" gradientUnits="userSpaceOnUse" x1="98.3175" y1="101.3608" x2="42.3175" y2="45.3608">
			<stop  offset="0" style="stop-color:#AEBAC0"/>
			<stop  offset="1" style="stop-color:#E0EBF2"/>
		</linearGradient>
		<path id="XMLID_3803_" opacity="0.9" fill="url(#XMLID_7_)" d="M111.318,60.361v-2h-12v-12h-2v12h-12v-12h-2v12h-12v-12h-2v12h-12
			v-12h-2v12h-12v-12h-2v12h-12v2h12v12h-12v2h12v12h-12v2h12v12h2v-12h12v12h2v-12h12v12h2v-12h12v12h2v-12h12v12h2v-12h12v-2h-12
			v-12h12v-2h-12v-12H111.318z M83.318,60.361v12h-12v-12H83.318z M69.318,60.361v12h-12v-12H69.318z M43.318,60.361h12v12h-12
			V60.361z M43.318,86.361v-12h12v12H43.318z M57.318,86.361v-12h12v12H57.318z M71.318,86.361v-12h12v12H71.318z M97.318,86.361
			h-12v-12h12V86.361z M97.318,72.361h-12v-12h12V72.361z"/>
	</g>
	<linearGradient id="XMLID_8_" gradientUnits="userSpaceOnUse" x1="90.5393" y1="78.9842" x2="78.3549" y2="56.8808">
		<stop  offset="0" style="stop-color:#235F2A"/>
		<stop  offset="1" style="stop-color:#88B626"/>
	</linearGradient>
	<polygon id="XMLID_3801_" fill="url(#XMLID_8_)" points="64.786,64.361 74.786,84.361 80.786,84.361 96.786,56.361 92.786,56.361 
		77.786,78.361 68.786,64.361 	"/>
</g>
</svg>
