<?xml version="1.0" encoding="utf-8"?>
<!-- Generator: Adobe Illustrator 19.0.0, SVG Export Plug-In . SVG Version: 6.00 Build 0)  -->
<svg version="1.1" id="Layer_1" xmlns="http://www.w3.org/2000/svg" xmlns:xlink="http://www.w3.org/1999/xlink" x="0px" y="0px"
	 viewBox="0 0 70 70" style="enable-background:new 0 0 70 70;" xml:space="preserve">
<style type="text/css">
	.st0{opacity:5.000000e-002;}
	.st1{fill:url(#XMLID_2_);}
	.st2{fill:url(#XMLID_3_);}
	.st3{fill:url(#XMLID_4_);}
	.st4{fill:url(#XMLID_5_);}
</style>
<path id="XMLID_434_" class="st0" d="M35,0C15.7,0,0,15.7,0,35s15.7,35,35,35s35-15.7,35-35S54.3,0,35,0L35,0z"/>
<g id="XMLID_427_">
	<linearGradient id="XMLID_2_" gradientUnits="userSpaceOnUse" x1="42.2162" y1="17.6735" x2="22.8829" y2="52.0069">
		<stop  offset="0" style="stop-color:#68F1CE"/>
		<stop  offset="0.2466" style="stop-color:#61DAD2"/>
		<stop  offset="0.7601" style="stop-color:#4EA0DB"/>
		<stop  offset="1" style="stop-color:#4583E0"/>
	</linearGradient>
	<path id="XMLID_433_" class="st1" d="M34.2,44l1.8-3.6l-3.3-1.6c-0.2-0.1-0.3-0.2-0.4-0.4l-0.9-1.6l-3.1-1.5l-3,1.6
		c-0.2,0.1-0.5,0.2-0.8,0.1c0,0,0,0,0,0l0.5,2.6l2.1,2.5l0.9,0.9c0.2,0.2,0.3,0.3,0.3,0.6l0.2,1.3c1.6,0.1,3.2,0.2,4.9,0.2L34.2,44z
		"/>
	<linearGradient id="XMLID_3_" gradientUnits="userSpaceOnUse" x1="41.7915" y1="17.4344" x2="22.4582" y2="51.7677">
		<stop  offset="0" style="stop-color:#68F1CE"/>
		<stop  offset="0.2466" style="stop-color:#61DAD2"/>
		<stop  offset="0.7601" style="stop-color:#4EA0DB"/>
		<stop  offset="1" style="stop-color:#4583E0"/>
	</linearGradient>
	<path id="XMLID_432_" class="st2" d="M50.2,46.8l-0.5-1.4c-0.7,0.2-1.5,0.3-2.2,0.5c-0.5,1.2-1.6,2.1-3,2.1c-1,0-2-0.5-2.6-1.3
		c-2.4,0.2-4.8,0.4-7.4,0.4c-0.1,0-0.2,0-0.3,0l-3.2,3.8l-0.9,1.8c-0.1,0.3-0.4,0.5-0.7,0.5c-0.1,0-0.1,0-0.2,0
		c-0.2,0-0.4-0.1-0.6-0.2l-0.7-0.6c-0.2-0.2-0.3-0.4-0.4-0.6l-0.8-5.2c-4.1-0.4-7.8-1.2-10.9-2.2c-0.1-0.2-0.1-0.3-0.2-0.5l-0.3-1.8
		c3,1.1,6.8,2,11.1,2.5l-0.1-0.5l-0.7-0.7l-2.3-2.7c-0.1-0.1-0.2-0.3-0.2-0.4l-0.6-3.1c0-0.1,0-0.1,0-0.2l0-1.3L21,34.2l-1.3,0
		c-0.1,0-0.2,0-0.3-0.1l-2.8-1C16.3,33,16,32.6,16,32.2v-2.3l-0.9-0.6c-0.7,2.1-1.1,4.3-1.1,6.6c0,2.7,0.6,5.4,1.5,7.8
		c-0.2-0.5-0.4-1.1-0.6-1.6c-4.6-1.7-7.4-4-7.4-6.1s2.8-4.4,7.4-6.1c0.3-0.8,0.6-1.6,0.9-2.3l1.7,1.1c0.3,0.2,0.5,0.5,0.5,0.8v2.1
		l2,0.7l1.5,0c0.3,0,0.5,0.1,0.7,0.3l0.4,0.4c0-0.1,0-0.1,0.1-0.2l1-1.9c0-0.1,0.1-0.2,0.2-0.3l1.8-1.8l1.7-2.6l0.9-5.5
		c0.1-0.3,0.3-0.6,0.6-0.7l1.7-0.8l-0.6-0.2l-4.3-1.4c-4.3,2.1-7.7,5.6-9.7,9.9c0,0,0,0,0,0c-6.3,2.1-10.3,5.1-10.3,8.6
		S10,42.3,16,44.4c0,0,0,0,0,0c3,7.1,10.3,12,18.6,12c6.8,0,12.9-3.4,16.6-8.5l-0.7-0.7C50.4,47.1,50.3,46.9,50.2,46.8z"/>
	<linearGradient id="XMLID_4_" gradientUnits="userSpaceOnUse" x1="45.639" y1="19.6009" x2="26.3057" y2="53.9343">
		<stop  offset="0" style="stop-color:#68F1CE"/>
		<stop  offset="0.2466" style="stop-color:#61DAD2"/>
		<stop  offset="0.7601" style="stop-color:#4EA0DB"/>
		<stop  offset="1" style="stop-color:#4583E0"/>
	</linearGradient>
	<path id="XMLID_431_" class="st3" d="M29.3,49.8c0-0.1,0.1-0.1,0.1-0.2l2.3-2.7c-1,0-2-0.1-2.9-0.2L29.3,49.8L29.3,49.8z"/>
	<linearGradient id="XMLID_5_" gradientUnits="userSpaceOnUse" x1="48.9115" y1="21.4437" x2="29.5782" y2="55.777">
		<stop  offset="0" style="stop-color:#68F1CE"/>
		<stop  offset="0.2466" style="stop-color:#61DAD2"/>
		<stop  offset="0.7601" style="stop-color:#4EA0DB"/>
		<stop  offset="1" style="stop-color:#4583E0"/>
	</linearGradient>
	<path id="XMLID_428_" class="st4" d="M53.2,27.2L53.2,27.2c-3.3-7.1-10.4-12-18.7-12c-2.2,0-4.2,0.3-6.2,1l2.2,0.7l2.9,1
		c0.4,0.1,0.6,0.5,0.7,0.9s-0.2,0.8-0.6,1l-3.4,1.6l-0.9,5.2c0,0.1-0.1,0.3-0.2,0.4l-1.9,2.9c0,0.1-0.1,0.1-0.1,0.2l-1.8,1.8
		l-0.7,1.3l0.7,1.5l2.5-1.4c0.3-0.2,0.6-0.2,0.9,0l3.8,1.9c0.2,0.1,0.3,0.2,0.4,0.4l0.9,1.6l3.6,1.8c0.3,0.2,0.6,0.5,0.6,0.9v1
		c0,0.2,0,0.3-0.1,0.5L36,45c1.8,0,3.6-0.1,5.3-0.3c0,0,0,0,0,0c0-1.8,1.5-3.2,3.2-3.2c1.5,0,2.7,1,3.1,2.4c0.5-0.1,0.9-0.2,1.3-0.3
		l-1.4-2.2c-0.1-0.1-0.1-0.2-0.1-0.4l-1-4.8c-0.1-0.4,0.1-0.8,0.4-1c0.2-0.2,0.4-0.4,0.6-0.5c0.1-0.3,0.3-0.8,1.1-1.8
		c-2.3-0.5-2.7-0.8-2.8-0.9l-1.2-1c-0.2-0.2-0.4-0.5-0.4-0.8v-2.9c0-0.2,0.1-0.4,0.2-0.6l4-5.7l1.6,1.2L46,27.7v2.1l0.8,0.7
		c0.3,0.1,2,0.5,3.5,0.7c0.3,0.1,0.6,0.3,0.8,0.6c0.1,0.3,0.1,0.7-0.1,1c-0.7,0.9-1.5,2.1-1.7,2.5c0,0.2-0.2,0.6-0.8,1.1l0.8,4
		L51,43c1.1-0.3,2.2-0.7,3.2-1c0.6-1.9,0.9-4,0.9-6.1c0-2.1-0.3-4.2-0.9-6.1c4.6,1.7,7.4,4,7.4,6.1s-2.8,4.4-7.4,6.1
		c-0.3,0.8-0.6,1.7-1,2.5c-0.5,0.2-1,0.3-1.5,0.5l0.4,1.1l0.2,0.2c0.3-0.6,0.7-1.2,0.9-1.8c0,0,0,0,0,0c6.3-2.1,10.4-5.1,10.4-8.6
		S59.6,29.3,53.2,27.2z M53.7,28.3c0.2,0.5,0.4,0.9,0.5,1.4C54,29.2,53.9,28.7,53.7,28.3z"/>
</g>
</svg>
