<?xml version="1.0" encoding="utf-8"?>
<!-- Generator: Adobe Illustrator 19.0.0, SVG Export Plug-In . SVG Version: 6.00 Build 0)  -->
<svg version="1.1" id="Layer_1" xmlns="http://www.w3.org/2000/svg" xmlns:xlink="http://www.w3.org/1999/xlink" x="0px" y="0px"
	 viewBox="0 0 79 58" style="enable-background:new 0 0 79 58;" xml:space="preserve">
<style type="text/css">
	.st0{fill:url(#XMLID_9_);}
	.st1{fill:#FFFFFF;}
</style>
<linearGradient id="XMLID_9_" gradientUnits="userSpaceOnUse" x1="0" y1="29" x2="79" y2="29">
	<stop  offset="0" style="stop-color:#FF9F00"/>
	<stop  offset="1" style="stop-color:#FFCE00"/>
</linearGradient>
<path id="XMLID_16_" class="st0" d="M77.3,11.8L66,1.5c-1-1-2.4-1.5-3.8-1.5H20.4c-3,0-5.4,2.4-5.4,5.4V14h32.2c1.9,0,3.7,0.7,5.1,2
	l0.7,0.7l-1.4,1.4L51,17.5c-1-1-2.4-1.5-3.8-1.5H5.4c-3,0-5.4,2.4-5.4,5.4v31.3c0,3,2.4,5.4,5.4,5.4h53.1c3,0,5.4-2.4,5.4-5.4v-21
	c0-1.5-0.6-2.8-1.7-3.9l0,0l1.3-1.5l0,0l0,0l0,0c1.4,1.4,2.3,3.3,2.3,5.3V42h7.6c3,0,5.4-2.4,5.4-5.4v-21
	C79,14.2,78.4,12.8,77.3,11.8z M60,28.1l-6.4,6.5L58,40H40V22.1V21l6,6c0,0,8.8-8.2,12.4-14c1.7-2.8-1-7-1-7l3.5,4.4
	C65.9,14.8,64.6,23.4,60,28.1z"/>
<path id="XMLID_272_" class="st1" d="M29.8,26H11.3C9.5,26,8,27.5,8,29.3v15.5c0,1.8,1.5,3.3,3.3,3.3h18.5c1.8,0,3.3-1.5,3.3-3.3V38
	v-2v-6.8C33,27.5,31.5,26,29.8,26z M11.3,28H16v8h-6v-6.8C10,28.6,10.6,28,11.3,28z M10,44.8V38h6v8h-4.8C10.6,46,10,45.4,10,44.8z
	 M18,46V28h5v18H18z M31,44.8c0,0.7-0.6,1.3-1.3,1.3H25v-8h6V44.8z M25,36v-8h4.8c0.7,0,1.3,0.6,1.3,1.3V36H25z"/>
</svg>
